<svg width="16" height="16" viewBox="0 0 16 16" fill="none" xmlns="http://www.w3.org/2000/svg">
<path d="M12.4781 1.36979C11.2002 0.505049 9.6591 0 8 0C3.58172 0 0 3.58172 0 8C0 12.4183 3.58172 16 8 16C12.4183 16 16 12.4183 16 8C16 6.1021 15.3391 4.35856 14.2349 2.98697C12.8339 5.84205 11.2141 8.58502 9.38974 11.1912L8.36484 12.6554C8.16068 12.947 7.83226 13.1269 7.47656 13.1418C7.12087 13.1568 6.77852 13.0051 6.5506 12.7316L3.69346 9.30307C3.28939 8.81818 3.3549 8.09753 3.83979 7.69346C4.32468 7.28939 5.04532 7.3549 5.4494 7.83979L7.34955 10.12L7.51721 9.88047C9.40361 7.18562 11.0629 4.33893 12.4781 1.36979Z" fill="#0CC683"/>
</svg>
